<svg width="14" height="14" viewBox="0 0 14 14" fill="none" xmlns="http://www.w3.org/2000/svg">
<path d="M5.24998 5.83333C5.89431 5.83333 6.41665 5.311 6.41665 4.66667C6.41665 4.02233 5.89431 3.5 5.24998 3.5C4.60565 3.5 4.08331 4.02233 4.08331 4.66667C4.08331 5.311 4.60565 5.83333 5.24998 5.83333Z" stroke="#A4B4CB" stroke-linecap="round" stroke-linejoin="round"/>
<path d="M7.58335 1.16675H5.25002C2.33335 1.16675 1.16669 2.33341 1.16669 5.25008V8.75008C1.16669 11.6667 2.33335 12.8334 5.25002 12.8334H8.75002C11.6667 12.8334 12.8334 11.6667 12.8334 8.75008V5.83342" stroke="#A4B4CB" stroke-linecap="round" stroke-linejoin="round"/>
<path d="M9.1875 2.91675H12.3958" stroke="#A4B4CB" stroke-linecap="round"/>
<path d="M10.7917 4.52083V1.3125" stroke="#A4B4CB" stroke-linecap="round"/>
<path d="M1.5575 11.0542L4.43333 9.12333C4.89416 8.81416 5.55916 8.84916 5.97333 9.20499L6.16583 9.37416C6.62083 9.76499 7.35583 9.76499 7.81083 9.37416L10.2375 7.29166C10.6925 6.90083 11.4275 6.90083 11.8825 7.29166L12.8333 8.10833" stroke="#A4B4CB" stroke-linecap="round" stroke-linejoin="round"/>
</svg>
